PathFileType	4	(X/Y/Z)	8_coords_data.trc
DataRate	CameraRate	NumFrames	NumMarkers	Units	OrigDataRate	OrigDataStartFrame	OrigNumFrames
30.0	30.0	6	21	m	30.0	43	53
Frame#	Time	THUMB_TIP	THUMB_IP	THUMB_MCP	THUMB_CMC	INDEX_TIP	INDEX_DIP	INDEX_PIP	INDEX_MCP	MIDDLE_TIP	MIDDLE_DIP	MIDDLE_PIP	MIDDLE_MCP	RING_TIP	RING_DIP	RING_PIP	RING_MCP	PINKY_TIP	PINKY_DIP	PINKY_PIP	PINKY_MCP	WRIST
X1	Y1	Z1	X2	Y2	Z2	X3	Y3	Z3	X4	Y4	Z4	X5	Y5	Z5	X6	Y6	Z6	X7	Y7	Z7	X8	Y8	Z8	X9	Y9	Z9	X10	Y10	Z10	X11	Y11	Z11	X12	Y12	Z12	X13	Y13	Z13	X14	Y14	Z14	X15	Y15	Z15	X16	Y16	Z16	X17	Y17	Z17	X18	Y18	Z18	X19	Y19	Z19	X20	Y20	Z20	X21	Y21	Z21
42	1.4	-0.03906460189819336	-0.08968540191650391	0.9735449829101562	-0.03714970016479492	-0.06679440307617188	0.986801025390625	-0.03929010009765625	-0.04560459899902344	1.003989990234375	-0.0410088996887207	-0.015290900230407715	1.0157000122070312	-0.03985169982910156	-0.06206660079956055	0.8881019897460938	-0.03999959945678711	-0.056032001495361326	0.9094169921875	-0.04334540176391601	-0.04937820053100586	0.9299849853515625	-0.0467327995300293	-0.03594160079956055	0.963905029296875	-0.044455001831054684	-0.03230789947509766	0.86925	-0.04379130172729492	-0.028964599609375	0.893572998046875	-0.04796329879760742	-0.024220699310302733	0.9202919921875	-0.04987300109863281	-0.016151500701904298	0.95752001953125	-0.04217010116577148	-0.004198729991912842	0.8750659790039063	-0.04464849853515625	-0.0018841500282287592	0.8985850219726562	-0.048561901092529294	0.000248613998293876	0.9232670288085938	-0.04711989974975586	0.002657480001449585	0.9577999877929687	-0.03802059936523437	0.023979700088500977	0.8980289916992188	-0.0401411018371582	0.02331990051269531	0.91831201171875	-0.0424911003112793	0.022104099273681642	0.9354829711914062	-0.042574501037597655	0.019900199890136718	0.9615750122070312	-0.06550499725341796	0.011652999877929688	1.02922998046875
43	1.4333333333333333	-0.038984901428222654	-0.089497802734375	0.9734290161132813	-0.03695289993286133	-0.06658260345458984	0.9867059936523438	-0.03905070114135742	-0.04537210083007812	1.0038900146484375	-0.040705299377441405	-0.015090700149536132	1.0156400146484375	-0.040658798217773434	-0.06176729965209961	0.8878660278320313	-0.04063949966430664	-0.055815601348876955	0.9092009887695313	-0.04375590133666992	-0.04912070083618164	0.929843017578125	-0.04662710189819336	-0.03572790145874023	0.9637969970703125	-0.044504398345947264	-0.03208110046386719	0.8691439819335938	-0.043816299438476564	-0.028704099655151367	0.8935130004882812	-0.047974098205566404	-0.023967100143432618	0.92022900390625	-0.04967610168457031	-0.015855899810791017	0.95752197265625	-0.04209749984741211	-0.003882730007171631	0.8750029907226563	-0.04456880187988281	-0.001580139994621276	0.898469970703125	-0.048446300506591794	0.00055305802822113	0.9231890258789063	-0.04697520065307617	0.0027861199378967283	0.9575390014648437	-0.03812049865722656	0.024757200241088868	0.89793798828125	-0.04011299896240234	0.023898399353027344	0.9182130126953125	-0.04239839935302735	0.022547399520874024	0.9354130249023438	-0.04236529922485351	0.020130899429321288	0.9615560302734375	-0.06515640258789063	0.011890999794006348	1.029260009765625
44	1.4666666666666666	-0.03840819931030273	-0.0892261962890625	0.9732080078125	-0.036523300170898436	-0.0663469009399414	0.98652001953125	-0.0387239990234375	-0.04520220184326172	1.00375	-0.04048749923706055	-0.014954099655151367	1.015469970703125	-0.03991579818725586	-0.061361198425292966	0.8877269897460938	-0.040035999298095704	-0.055430301666259764	0.9090260009765625	-0.0432947998046875	-0.04879980087280274	0.9296220092773437	-0.04623929977416992	-0.03549639892578125	0.9636270141601563	-0.043716201782226564	-0.03164200019836426	0.86902197265625	-0.04322010040283203	-0.028327899932861327	0.8934000244140625	-0.047505901336669924	-0.023653900146484375	0.9200700073242187	-0.049385299682617186	-0.015548399925231934	0.9574080200195313	-0.041795398712158205	-0.003559669971466064	0.8748900146484375	-0.044248199462890624	-0.001303380012512207	0.89835400390625	-0.04813930130004883	0.00080572098493576	0.9230910034179688	-0.046725898742675784	0.003061589956283569	0.9575479736328125	-0.03807699966430664	0.02530710029602051	0.897864013671875	-0.04001490020751953	0.02433740043640137	0.9181170043945313	-0.04228089904785156	0.02290660095214844	0.93527001953125	-0.04221179962158203	0.020382600784301756	0.9614229736328125	-0.0651073989868164	0.012120900154113769	1.0291500244140626
45	1.5	-0.03796070098876953	-0.08904679870605468	0.9731220092773437	-0.03605229949951172	-0.06617379760742187	0.9864550170898437	-0.03835400009155274	-0.04504949951171875	1.0037000122070312	-0.040164398193359374	-0.01481309986114502	1.01547998046875	-0.03951890182495117	-0.06087179946899414	0.887552978515625	-0.03968470001220703	-0.05509099960327148	0.908906982421875	-0.04299359893798828	-0.04853179931640625	0.9295590209960938	-0.04596969985961914	-0.035342300415039066	0.9636510009765625	-0.04328459930419922	-0.03124869918823242	0.8689119873046875	-0.0428031005859375	-0.027979799270629883	0.893322021484375	-0.047134300231933594	-0.02337929916381836	0.9199979858398437	-0.04905640029907227	-0.015404500007629395	0.9574580078125	-0.04118569946289063	-0.003277849912643432	0.8748989868164062	-0.04370790100097656	-0.001030419945716858	0.8982730102539063	-0.047683101654052734	0.001040709972381591	0.9229979858398437	-0.04644260025024414	0.003191270112991333	0.9573790283203125	-0.03739519882202148	0.025489099502563478	0.8979119873046875	-0.03945240020751953	0.024529800415039063	0.9181649780273438	-0.041804000854492186	0.023099300384521484	0.9353109741210938	-0.04188079833984375	0.020582199096679688	0.9614400024414063	-0.06476010131835938	0.012185500144958497	1.028989990234375
46	1.5333333333333334	-0.037736000061035155	-0.08903469848632813	0.9730289916992187	-0.03583060073852539	-0.066143798828125	0.9863709716796875	-0.038118698120117187	-0.045064800262451174	1.0035800170898437	-0.039979099273681644	-0.014798500061035157	1.0153499755859374	-0.039152500152587894	-0.06081940078735352	0.8874539794921875	-0.03951630020141601	-0.0549552001953125	0.9088579711914062	-0.042844001770019534	-0.048440799713134766	0.9294869995117188	-0.0457484016418457	-0.035239101409912106	0.9636060180664062	-0.042479000091552734	-0.031210399627685546	0.8688790283203125	-0.042184101104736325	-0.027938400268554688	0.893281005859375	-0.04675690078735351	-0.02335300064086914	0.91989501953125	-0.0488224983215332	-0.015342499732971191	0.9571840209960938	-0.04053079986572266	-0.00325871992111206	0.874843994140625	-0.043213798522949216	-0.000999904990196228	0.8982470092773438	-0.047401798248291015	0.001044950008392334	0.922948974609375	-0.04634370040893555	0.003260070085525512	0.95731298828125	-0.037043701171875	0.02580660057067871	0.8978300170898438	-0.0391974983215332	0.02477630043029785	0.9181279907226563	-0.041615001678466795	0.023295400619506836	0.935260009765625	-0.04183449935913086	0.020649099349975587	0.9612979736328126	-0.06460179901123046	0.012130000114440919	1.0289599609375
47	1.5666666666666667	-0.03755970001220703	-0.08902210235595703	0.9728939819335938	-0.03578580093383789	-0.06619699859619141	0.9861649780273437	-0.038054500579833984	-0.04507600021362305	1.0033900146484376	-0.040005599975585934	-0.014819000244140625	1.015219970703125	-0.03802539825439453	-0.06062889862060547	0.887322021484375	-0.038711799621582034	-0.05484379959106445	0.9086719970703125	-0.042300498962402344	-0.048371200561523435	0.9292670288085938	-0.045558998107910156	-0.03513479995727539	0.9635499877929687	-0.040965400695800784	-0.03092620086669922	0.8687849731445313	-0.041121200561523436	-0.02770739936828613	0.8931920166015626	-0.04606829833984375	-0.02319350051879883	0.91975	-0.04870449829101563	-0.01530210018157959	0.9571749877929687	-0.039921298980712894	-0.0029968500137329103	0.8747160034179687	-0.0428129997253418	-0.000786355972290039	0.898072998046875	-0.047190399169921876	0.0011778500080108641	0.9227639770507813	-0.04618840026855469	0.0034654500484466552	0.9573280029296874	-0.036869998931884765	0.026626699447631835	0.8978720092773438	-0.039053600311279295	0.025352300643920897	0.9180419921875	-0.04154249954223633	0.023672399520874025	0.9351740112304687	-0.04183380126953125	0.02074650001525879	0.9612260131835938	-0.06487229919433593	0.012278200149536133	1.02897998046875
